# xmcd CD database file
# Copyright (C) 1997 Ti Kan
# 
# Track frame offsets:
#     150
#     20440
#     39943
#     64489
#     80182
#     96864
#     117147
# 
# Disc length: 1813 seconds
# 
# Revision: 1
# Processed by: cddbd v1.4b41PL1 Copyright (c) Steve Scherf et al.
# Submitted via: DiscPlay 4.0.4
# 
DISCID=57071307
DTITLE=Umka and Kovcheg - Live
DYEAR=1900
DGENRE=
TTITLE0=Bye bye baby
TTITLE1=Novye vorota
TTITLE2=Posmotri na sebya
TTITLE3=Delilah
TTITLE4=Just like a rollin' stone
TTITLE5=Lya minor i vpered
TTITLE6=Baby bye bye
EXTD=
EXTT0=
EXTT1=
EXTT2=
EXTT3=
EXTT4=
EXTT5=
EXTT6=
PLAYORDER=
